<mxfile host="65bd71144e">
    <diagram id="NOnV2WSlNjVWjzI52FQA" name="Page-1">
        <mxGraphModel dx="753" dy="181" grid="1" gridSize="10" guides="1" tooltips="1" connect="1" arrows="1" fold="1" page="1" pageScale="1" pageWidth="827" pageHeight="1169" math="0" shadow="0">
            <root>
                <mxCell id="0"/>
                <mxCell id="1" parent="0"/>
                <mxCell id="PaUay67m_fLNC7bCt-xs-7" style="edgeStyle=none;html=1;exitX=0.5;exitY=1;exitDx=0;exitDy=0;entryX=0.5;entryY=0;entryDx=0;entryDy=0;" edge="1" parent="1" source="2" target="3">
                    <mxGeometry relative="1" as="geometry"/>
                </mxCell>
                <mxCell id="2" value="Start" style="ellipse;whiteSpace=wrap;html=1;" vertex="1" parent="1">
                    <mxGeometry x="317.5" width="90" height="40" as="geometry"/>
                </mxCell>
                <mxCell id="PaUay67m_fLNC7bCt-xs-8" style="edgeStyle=none;html=1;exitX=0.5;exitY=1;exitDx=0;exitDy=0;entryX=0.5;entryY=0;entryDx=0;entryDy=0;" edge="1" parent="1" source="3" target="PaUay67m_fLNC7bCt-xs-3">
                    <mxGeometry relative="1" as="geometry"/>
                </mxCell>
                <mxCell id="3" value="int N&lt;br&gt;int i =2" style="rounded=0;whiteSpace=wrap;html=1;" vertex="1" parent="1">
                    <mxGeometry x="310" y="60" width="105" height="40" as="geometry"/>
                </mxCell>
                <mxCell id="PaUay67m_fLNC7bCt-xs-9" value="true" style="edgeStyle=none;html=1;exitX=0.5;exitY=1;exitDx=0;exitDy=0;" edge="1" parent="1" source="PaUay67m_fLNC7bCt-xs-3" target="PaUay67m_fLNC7bCt-xs-4">
                    <mxGeometry relative="1" as="geometry"/>
                </mxCell>
                <mxCell id="PaUay67m_fLNC7bCt-xs-15" value="false" style="edgeStyle=none;html=1;exitX=1;exitY=0.5;exitDx=0;exitDy=0;entryX=0.5;entryY=0;entryDx=0;entryDy=0;" edge="1" parent="1" source="PaUay67m_fLNC7bCt-xs-3" target="PaUay67m_fLNC7bCt-xs-5">
                    <mxGeometry relative="1" as="geometry">
                        <Array as="points">
                            <mxPoint x="480" y="145"/>
                            <mxPoint x="480" y="320"/>
                        </Array>
                    </mxGeometry>
                </mxCell>
                <mxCell id="PaUay67m_fLNC7bCt-xs-3" value="i&amp;nbsp; &amp;gt;= N" style="rhombus;whiteSpace=wrap;html=1;" vertex="1" parent="1">
                    <mxGeometry x="296.25" y="120" width="132.5" height="50" as="geometry"/>
                </mxCell>
                <mxCell id="PaUay67m_fLNC7bCt-xs-14" value="true&lt;br&gt;" style="edgeStyle=none;html=1;exitX=0.5;exitY=1;exitDx=0;exitDy=0;entryX=0;entryY=0.5;entryDx=0;entryDy=0;" edge="1" parent="1" source="PaUay67m_fLNC7bCt-xs-4" target="PaUay67m_fLNC7bCt-xs-5">
                    <mxGeometry relative="1" as="geometry"/>
                </mxCell>
                <mxCell id="PaUay67m_fLNC7bCt-xs-17" value="false&lt;br&gt;" style="edgeStyle=none;html=1;exitX=0;exitY=0.5;exitDx=0;exitDy=0;entryX=1;entryY=0.5;entryDx=0;entryDy=0;" edge="1" parent="1" source="PaUay67m_fLNC7bCt-xs-4" target="PaUay67m_fLNC7bCt-xs-11">
                    <mxGeometry relative="1" as="geometry"/>
                </mxCell>
                <mxCell id="PaUay67m_fLNC7bCt-xs-4" value="i % 2 == 0" style="rhombus;whiteSpace=wrap;html=1;" vertex="1" parent="1">
                    <mxGeometry x="293.75" y="210" width="137.5" height="50" as="geometry"/>
                </mxCell>
                <mxCell id="PaUay67m_fLNC7bCt-xs-16" style="edgeStyle=none;html=1;exitX=1;exitY=0.5;exitDx=0;exitDy=0;entryX=0.5;entryY=0;entryDx=0;entryDy=0;" edge="1" parent="1" source="PaUay67m_fLNC7bCt-xs-5" target="PaUay67m_fLNC7bCt-xs-6">
                    <mxGeometry relative="1" as="geometry"/>
                </mxCell>
                <mxCell id="PaUay67m_fLNC7bCt-xs-5" value="print&lt;br&gt;evenNumbersList" style="rounded=0;whiteSpace=wrap;html=1;direction=south;" vertex="1" parent="1">
                    <mxGeometry x="292.5" y="310" width="140" height="60" as="geometry"/>
                </mxCell>
                <mxCell id="PaUay67m_fLNC7bCt-xs-6" value="the end" style="ellipse;whiteSpace=wrap;html=1;" vertex="1" parent="1">
                    <mxGeometry x="306.88" y="390" width="111.25" height="40" as="geometry"/>
                </mxCell>
                <mxCell id="PaUay67m_fLNC7bCt-xs-19" style="edgeStyle=none;html=1;exitX=0.5;exitY=0;exitDx=0;exitDy=0;entryX=0;entryY=0.5;entryDx=0;entryDy=0;" edge="1" parent="1" source="PaUay67m_fLNC7bCt-xs-11" target="PaUay67m_fLNC7bCt-xs-3">
                    <mxGeometry relative="1" as="geometry">
                        <Array as="points">
                            <mxPoint x="150" y="150"/>
                        </Array>
                    </mxGeometry>
                </mxCell>
                <mxCell id="PaUay67m_fLNC7bCt-xs-11" value="i++" style="rounded=0;whiteSpace=wrap;html=1;" vertex="1" parent="1">
                    <mxGeometry x="110" y="220" width="80" height="30" as="geometry"/>
                </mxCell>
            </root>
        </mxGraphModel>
    </diagram>
</mxfile>